<?xml version="1.0" encoding="UTF-8"?>
<svg xmlns="http://www.w3.org/2000/svg" width="900" height="620" viewBox="0 0 900 620">
  <defs>
    <linearGradient id="bg" x1="0" y1="0" x2="1" y2="1">
      <stop offset="0%" stop-color="#FFE4E6"/>
      <stop offset="55%" stop-color="#ffffff"/>
      <stop offset="100%" stop-color="#FFE4E6"/>
    </linearGradient>
    <filter id="shadow" x="-20%" y="-20%" width="140%" height="140%"><feDropShadow dx="0" dy="16" stdDeviation="16" flood-color="#111827" flood-opacity="0.18"/></filter>
  </defs>
  <rect width="900" height="620" rx="42" fill="url(#bg)"/>
  <circle cx="50" cy="380" r="6" fill="#EF4444" opacity="0.10"/><circle cx="98" cy="380" r="9" fill="#EF4444" opacity="0.10"/><circle cx="146" cy="380" r="12" fill="#EF4444" opacity="0.10"/><circle cx="194" cy="380" r="6" fill="#EF4444" opacity="0.10"/><circle cx="242" cy="380" r="9" fill="#EF4444" opacity="0.10"/><circle cx="290" cy="380" r="12" fill="#EF4444" opacity="0.10"/><circle cx="338" cy="380" r="6" fill="#EF4444" opacity="0.10"/><circle cx="386" cy="380" r="9" fill="#EF4444" opacity="0.10"/><circle cx="434" cy="380" r="12" fill="#EF4444" opacity="0.10"/><circle cx="482" cy="380" r="6" fill="#EF4444" opacity="0.10"/>
  <circle cx="450" cy="292" r="184" fill="#ffffff" filter="url(#shadow)"/>
  <circle cx="450" cy="292" r="142" fill="#FFE4E6" stroke="#EF4444" stroke-width="10" opacity="0.96"/>
  <ellipse cx="450" cy="395" rx="230" ry="34" fill="#111827" opacity="0.10"/>
  <g transform="rotate(0 450 292)">
    <text x="450" y="320" text-anchor="middle" dominant-baseline="middle" font-size="132" font-family="Segoe UI Emoji, Apple Color Emoji, Noto Color Emoji, Arial">🥩</text>
  </g>
  <rect x="54" y="44" width="240" height="48" rx="24" fill="#EF4444"/>
  <text x="174" y="75" text-anchor="middle" font-size="21" font-weight="800" fill="#fff" font-family="Inter, Arial, sans-serif">Menú publicado</text>
  <rect x="606" y="44" width="240" height="48" rx="24" fill="#111827" opacity="0.9"/>
  <text x="726" y="75" text-anchor="middle" font-size="20" font-weight="800" fill="#fff" font-family="Inter, Arial, sans-serif">Cerdo / carnes</text>
  <text x="450" y="500" text-anchor="middle" font-size="44" font-weight="900" fill="#7F1D1D" font-family="Inter, Arial, sans-serif">Chuleta de pollo</text>
  <text x="450" y="542" text-anchor="middle" font-size="23" font-weight="650" fill="#334155" font-family="Inter, Arial, sans-serif">proteína especial</text>
  <text x="450" y="582" text-anchor="middle" font-size="18" font-weight="700" fill="#EF4444" font-family="Inter, Arial, sans-serif">Imagen legible sin enlaces externos</text>
</svg>