<svg width="220" height="180" viewBox="0 0 220 180" fill="none" xmlns="http://www.w3.org/2000/svg">
  <defs>
    <linearGradient id="plate" x1="30" y1="70" x2="190" y2="155" gradientUnits="userSpaceOnUse"><stop stop-color="#FFF8E8"/><stop offset="1" stop-color="#FFC65B"/></linearGradient>
    <linearGradient id="brand" x1="18" y1="10" x2="210" y2="160" gradientUnits="userSpaceOnUse"><stop stop-color="#FF7A00"/><stop offset=".48" stop-color="#FFBE3B"/><stop offset="1" stop-color="#20975B"/></linearGradient>
    <filter id="shadow" x="0" y="0" width="220" height="180" filterUnits="userSpaceOnUse"><feDropShadow dx="0" dy="10" stdDeviation="8" flood-color="#6B3600" flood-opacity="0.22"/></filter>
  </defs>
  <rect x="12" y="12" width="196" height="156" rx="40" fill="#FFF5DC"/>
  <path d="M55 68c-24-36 5-64 27-44 19 18 15 49-6 62" stroke="url(#brand)" stroke-width="10" stroke-linecap="round" filter="url(#shadow)"/>
  <path d="M142 24v52M158 24v52M174 24v52M190 24v52" stroke="url(#brand)" stroke-width="9" stroke-linecap="round"/>
  <path d="M166 78v43" stroke="#523018" stroke-width="10" stroke-linecap="round"/>
  <path d="M34 92h152c-5 43-34 67-76 67S39 135 34 92Z" fill="url(#plate)" stroke="#523018" stroke-width="8" stroke-linejoin="round" filter="url(#shadow)"/>
  <path d="M50 106h121" stroke="white" stroke-width="5" stroke-linecap="round" opacity=".7"/>
  <path d="M65 130l-8 8M91 143l-3 12M128 144l3 12M154 130l8 8" stroke="#523018" stroke-width="5" stroke-linecap="round"/>
  <path d="M99 95l34 23" stroke="#523018" stroke-width="8" stroke-linecap="round"/>
  <circle cx="101" cy="95" r="8" fill="#523018"/>
</svg>
